<?xml version="1.0" encoding="utf-8"?>
<!-- Generator: Adobe Illustrator 21.0.0, SVG Export Plug-In . SVG Version: 6.00 Build 0)  -->
<svg version="1.1" id="Layer_1" xmlns="http://www.w3.org/2000/svg" xmlns:xlink="http://www.w3.org/1999/xlink" x="0px" y="0px"
	 viewBox="0 0 512 512" enable-background="new 0 0 512 512" xml:space="preserve">
<g>
	<path d="M501.8,409.4h-12.9c3.4-5.9,5.3-12.7,5.3-19.9v-36.6c0-59.5-25.5-116.4-69.9-156c-27.1-24.2-59.7-40.6-94.5-48.2
		c-0.4-0.3-0.8-0.6-1.2-0.9c-24.6-14.7-51.5-26.6-73.9-32.4c-12.6-3.3-23.7-4.8-33.4-4.5l-20.4-20.4c6.6-12.9,4.5-29.3-6.2-40.1
		C181.3,37,159.5,37,146,50.4c-5.4,5.4-8.8,12.2-9.8,19.5c-7.3,1-14.1,4.4-19.5,9.8c-6.5,6.5-10.1,15.1-10.1,24.3
		s3.6,17.8,10.1,24.3c10.8,10.8,27.1,12.9,40.1,6.2l20.4,20.4c0,1.5-0.1,2.9,0,4.5c-0.6-0.2-1.2-0.5-1.8-0.7
		c-18.7-7.5-41.3-14.3-60.8-13.8l-20.4-20.4c6.6-12.9,4.5-29.3-6.2-40.1C74.6,71,52.8,71,39.3,84.5c-5.4,5.4-8.8,12.2-9.8,19.5
		c-7.3,1-14.1,4.4-19.5,9.8c-13.4,13.4-13.4,35.2,0,48.6c10.8,10.8,27.1,12.9,40.1,6.2L70.5,189c-0.5,18.6,5.6,39.9,12.7,58
		c-9.8,21.6-14.8,44.7-14.8,68.6c0,38.8,19.5,73.1,49.1,93.8H74.1c-5.6,0-10.2,4.6-10.2,10.2c0,28.7,23.4,52.1,52.1,52.1h343.9
		c28.7,0,52.1-23.4,52.1-52.1C512,414,507.4,409.4,501.8,409.4z M276,144.1c-4.9,0.2-9.7,0.6-14.6,1.1l-45.6,5.2
		c-6.1,0.7-12.1,1.7-18.1,3.1c0.4-6.2,2-12.3,5.9-16.2C214,126.9,242.2,130.2,276,144.1z M165.2,114.1c-4-4-10.3-4-14.3-0.1
		c-5.5,5.3-14.3,5.3-19.7-0.1c-2.6-2.6-4.1-6.2-4.1-9.9s1.5-7.3,4.1-9.9c3.5-3.5,8.4-4.9,13.3-3.7c3.5,0.8,7.1-0.2,9.6-2.7
		s3.5-6.2,2.7-9.6c-1.2-4.8,0.2-9.8,3.7-13.3c5.5-5.5,14.3-5.5,19.8,0c5.4,5.4,5.4,14.2,0.1,19.7c-3.9,4-3.9,10.4,0.1,14.3
		l17.5,17.5c-3.3,1.7-6.2,3.9-8.8,6.5c-2.6,2.6-4.7,5.5-6.4,8.8L165.2,114.1z M246.4,225c26.4,26.4,26.4,69.3,0,95.7
		c-12.8,12.8-29.8,19.8-47.9,19.8s-35.1-7-47.9-19.8c-13.1-13.1-33.7-44.3-47.4-78.5c-13.9-34.5-16.2-61-6.3-70.9
		c4.1-4.1,10.9-6.1,19.9-6.1c13,0,30.6,4.2,51,12.4C202,191.4,233.2,211.9,246.4,225z M58.5,148.1c-4-4-10.3-4-14.3-0.1
		c-5.5,5.3-14.3,5.3-19.7-0.1c-5.5-5.5-5.5-14.3,0-19.8c3.5-3.5,8.4-4.9,13.3-3.7c3.5,0.8,7.1-0.2,9.6-2.7c2.5-2.5,3.5-6.2,2.7-9.6
		c-1.2-4.8,0.2-9.8,3.7-13.3c5.5-5.5,14.3-5.5,19.8,0c5.4,5.4,5.4,14.2,0.1,19.7c-3.9,4-3.9,10.4,0.1,14.3l17.5,17.5
		c-3.2,1.7-6.1,3.8-8.8,6.5c-2.6,2.6-4.8,5.6-6.5,8.8L58.5,148.1z M88.8,315.6c0-14.5,2.1-28.6,6.2-42.2c12.5,25,28,48.5,41.2,61.7
		c17.2,17.2,39.7,25.8,62.3,25.8s45.1-8.6,62.3-25.8l0,0c34.3-34.3,34.3-90.2,0-124.6c-12.1-12.1-32.7-26.1-55.3-37.9
		c4.2-0.8,8.4-1.5,12.6-2l45.6-5.2c53.4-6.1,106.9,10.9,147,46.7c40.1,35.8,63.1,87.1,63.1,140.8v36.6c0,11-8.9,19.9-19.9,19.9
		H182.5C130.8,409.4,88.8,367.3,88.8,315.6z M489.9,429.8c-4.3,12.5-16.1,21.5-30,21.5H116c-13.9,0-25.7-9-30-21.5H489.9z"/>
	<path d="M463,357c0-47.6-18.1-92.8-51.1-127.1c-3.9-4.1-10.4-4.2-14.4-0.3c-4.1,3.9-4.2,10.4-0.3,14.4
		c29.3,30.5,45.4,70.6,45.4,113c0,5.6,4.6,10.2,10.2,10.2S463,362.6,463,357z"/>
	<path d="M387,208.2c-2-1.4-4-2.9-6.1-4.2c-4.7-3.1-11-1.9-14.1,2.8c-3.1,4.7-1.9,11,2.8,14.1c1.8,1.2,3.6,2.5,5.4,3.8
		c1.8,1.3,3.9,1.9,6,1.9c3.2,0,6.3-1.5,8.3-4.2C392.6,217.9,391.6,211.5,387,208.2z"/>
</g>
</svg>
