<?xml version="1.0" encoding="utf-8"?>
<!-- Generator: Adobe Illustrator 21.0.0, SVG Export Plug-In . SVG Version: 6.00 Build 0)  -->
<svg version="1.1" id="Layer_1" xmlns="http://www.w3.org/2000/svg" xmlns:xlink="http://www.w3.org/1999/xlink" x="0px" y="0px"
	 viewBox="0 0 512 512" enable-background="new 0 0 512 512" xml:space="preserve">
<g>
	<path d="M282.8,76c33.2-9.2,66.7-13.1,100.4-3.4c9.6,2.8,16.7,3,26-2.2c19.7-11,44.4-5,58.2,12.2c13.6,16.8,15.2,41.6,1,57.3
		c-7.8,8.7-8.7,16.6-7.8,27.2c2.6,31.5-5.9,61-19.1,89.3c-19.1,41-46.7,75.6-80.5,105.5c-40.5,35.8-86,62.6-138.7,76.1
		c-35,9-70.1,10.8-104.9-1.6c-2.1-0.7-5.7,0.6-7.8,2.1c-23.7,16.8-59.1,8.1-71.5-17.8c-8.9-18.6-4.6-40,11.2-56.6
		c1.5-1.6,3.1-4.4,2.8-6.4c-4.8-31.6,1.2-61.7,13.2-90.8c20.6-50.3,54.4-90.6,91.6-122.3C197.8,111,241.1,87.5,282.8,76z
		 M74.1,277.8c-9.9,26-14.7,52.8-9.7,80.7c1,5.6-1,10.3-5.3,14.3c-14.9,13.7-17.5,35.6-6,49.5c12.6,15.2,34.2,17.5,51,5.2
		c4.5-3.3,9.3-4.6,14.5-2.7c40.9,15.2,81.5,10.3,121-4.3c84.3-31.1,148.4-86,189.5-166.4c13.3-25.9,20.7-53.7,19.8-83.2
		c0-1,0-2-0.2-2.9c-2.9-13.1-0.9-23.6,9.5-34.1c12-12.2,9.7-32.9-1.9-44.7c-13.1-13.4-33.8-15.5-48.5-4.2
		c-6.2,4.8-11.9,5.5-19.1,2.9c-28.6-10.6-57.7-9.4-86.9-3.3c-40,8.4-75.9,25.9-109.3,49.1c-10,7-19.6,14.7-25.5,19.2
		C124.6,190,92.7,229.1,74.1,277.8z"/>
	<path d="M272.6,119.6c28.6-9.8,57.7-14.8,87.8-9.2c37.6,7,57.6,31,58,69.2c0.2,22.1-4.9,43.2-14.3,63
		C365.6,323,302.2,373.9,217,398.1c-24.1,6.9-48.9,9.1-73.7,3.1c-31.3-7.6-50-30.4-51.6-62.5c-0.8-16.4,2.1-32.3,7.4-47.7
		c16.9-48.9,47.2-88.3,79.5-115.9C211.5,147.9,240.3,130.7,272.6,119.6z M400.4,219.7c5-14.7,7.8-29.8,6.5-45.4
		c-2.2-26.9-17.2-44.5-43.3-51c-20.6-5.1-41.2-3.4-61.5,1.3c-45.3,10.6-84.8,32.6-119.1,63.7c-30.7,27.8-54.5,60.5-69.3,99.5
		c-6,15.8-9.8,32.1-9.2,49.1c1,29,16.4,47.5,44.9,53.5c26.1,5.4,51.4,1,76.4-6.6c34.7-10.6,65.9-28,98.7-55
		C356,301.8,384.8,265.4,400.4,219.7z"/>
	<path d="M260.2,263.4c2.5-2.9,5.8-3.6,8.7-0.4c3,3.2,2.3,6-0.5,9.3c-2.7,3-5.3,6.6-6.4,10.3c-4.6,15.1-14.8,23.4-30.2,25.3
		c-10.7,1.3-17,6.9-20.1,17.1c-3.9,13.1-13.2,20.4-26.4,23.4c-5.6,1.3-11.1,3.5-16.4,5.8c-3.6,1.5-6.1,0.8-8.3-2.1
		c-2.5-3.2-1.8-6.2,1.6-7.9c5.1-2.5,10.3-4.5,15.6-6.5c2.1-0.8,4.4-0.9,6.6-1.3c-5.1-2.8-10.4-4.4-15.5-6.3
		c-13.9-5-23-18.5-20.6-32.2c2.4-13.4,9.6-24.6,20.2-33.1c8.4-6.8,18.4-7.3,28.6-3.9c17.6,5.7,35.2,11.4,51.9,16.8
		C253.1,272.7,256.4,267.9,260.2,263.4z M199.6,322.3c4-15.6,14.5-23.5,30.1-25.9c4.7-0.7,9.2-3.1,13.8-4.7
		c-0.1-0.7-0.3-1.5-0.4-2.2c-6.7-2.2-13.3-4.4-20-6.5c-10.3-3.4-20.5-6.8-30.9-10c-9.5-2.9-17.5,0.2-23,8.5c-2.4,3.6-4.8,7.2-6.9,11
		c-5.3,9.6-1.8,21.7,8.3,26c8.6,3.7,17.8,6.1,27,9.2C198.4,325.5,199.2,324,199.6,322.3z"/>
	<path d="M278,238.5c-18-21.6-14.9-54.2,6.8-72c21.5-17.6,53.8-14.4,71.6,7.1c17.8,21.6,14.8,53.6-6.8,71.5
		C328.2,262.8,295.8,259.9,278,238.5z M346,179.9c-13.7-15.9-38.6-17.5-54.7-3.5c-15.8,13.7-17.6,38.3-3.9,54.3
		c13.9,16.3,38.4,18.3,54.6,4.3C358.3,220.8,360.2,196.3,346,179.9z"/>
</g>
</svg>
