<?xml version="1.0" encoding="utf-8"?>
<!-- Generator: Adobe Illustrator 21.0.0, SVG Export Plug-In . SVG Version: 6.00 Build 0)  -->
<svg version="1.1" id="Layer_1" xmlns="http://www.w3.org/2000/svg" xmlns:xlink="http://www.w3.org/1999/xlink" x="0px" y="0px"
	 viewBox="0 0 1201.4 1199.8" enable-background="new 0 0 1201.4 1199.8" xml:space="preserve">
<path d="M80,581.9c0-22.2-0.3-44.5,0.1-66.7c0.6-32.9,3.8-65.5,11.9-97.5c9-35.6,25.8-67.4,47.8-96.6c26-34.6,57.1-64.1,90.6-91.3
	c35.6-28.8,72.5-56.1,111.3-80.6c46.4-29.2,95.8-51.8,149.4-64.6c46.6-11.1,93.9-14.7,141.7-12.5c51.3,2.4,101.3,11.3,150.1,27.2
	c51.4,16.7,96.9,43.6,136.4,80.2c21.3,19.8,41.4,40.9,61.5,62c21.3,22.5,41.3,46.2,59.7,71.2c32.5,44.3,58.5,91.8,74,144.8
	c13.1,45,17.8,91,15.6,137.8c-1.7,35.7-7.3,70.7-18.2,104.8c-10.3,32.1-24.7,62.4-42.5,90.9c-35.5,57.1-76.2,110.3-122.5,159.1
	C907,991.9,863.6,1029,814.3,1059c-41.7,25.4-86.1,44.5-134.1,54.6c-49.8,10.5-99.6,10.5-149.3-0.8c-37-8.5-72.4-21.5-106.7-37.4
	c-35.4-16.4-70.6-33.3-105.4-51c-35.3-17.9-68.8-39.1-99.4-64.5c-41.4-34.4-73.5-75.9-96.8-124.3c-17.9-37-29.6-75.8-35.4-116.5
	c-5.2-36.6-6-73.4-6.1-110.3c0-9,0-18,0-27C80.7,581.9,80.3,581.9,80,581.9z M611.2,146.4c-41.7,0.1-77.9,3.8-113.5,13.3
	c-41.1,11-78.9,29.3-114.7,52.1c-37.2,23.8-72.6,50-106.6,78.2c-25.2,20.9-48.9,43.4-70.3,68.4c-24.6,28.9-40.6,61.5-44.5,99.5
	c-2.3,22.8-4.5,45.8-5.1,68.7c-0.9,35.6-0.4,71.2-0.4,106.9c0.1,28.4,2.1,56.7,6.8,84.7c4.9,29.5,14.2,57.5,26.8,84.5
	c17.2,36.8,39.9,69.4,70.8,96.1c24.1,20.9,50.8,38,79.1,52.4c35,17.8,70.4,34.8,105.9,51.5c28.3,13.3,57.5,24.6,87.7,33.1
	c40.6,11.5,81.5,14.1,123,5.9c45.8-9,87.5-27.9,126.6-52.8c46.3-29.4,86.8-65.7,123.8-106c37.1-40.5,69.8-84.5,99.4-130.7
	c16.5-25.6,29.6-52.9,37.7-82.3c7.3-26.1,10.3-52.9,11.3-79.9c1-25.8-0.2-51.5-4.4-76.9c-7.5-45.5-24.7-87.1-49.4-125.8
	c-17.1-26.7-36.7-51.4-57.7-75c-25.2-28.2-50.4-56.6-78.9-81.6c-27-23.7-57-42.4-90.8-54.8C719.9,155.7,663.8,146.8,611.2,146.4z"/>
<path d="M727.8,334.2c-15.2,8-29.4,15.9-43.9,22.8c-10.5,5-21.5,9.4-32.6,12.9c-15.2,4.7-31.4-2.3-40.1-16c-8.6-13.7-7.3-32,3-44
	c11.4-13.1,26-16.4,44.5-9.9c19,6.7,36.7,16.3,54.3,25.8C717.6,328.4,722.1,331,727.8,334.2z"/>
<path d="M568,858.8c13.5,21.2,27,41.4,35.4,64.5c5.6,15.4-1.7,33.2-14.5,41.7c-13.8,9.2-32.5,8.2-45-2.2
	c-9.8-8.2-17.2-24.2-11.2-40.2C541.3,899.9,554.5,879.8,568,858.8z"/>
<path d="M643.3,633.5c7.7,12.8,15.3,24.5,22,36.7c4.9,8.9,8.9,18.4,12.9,27.8c7.6,17.9-3.8,42.2-26.8,47.6
	c-23.4,5.5-46.3-12.7-45.7-36.6c0.1-5.8,2.2-11.7,4.5-17.2C618.4,671.3,630.5,653,643.3,633.5z"/>
<path d="M943.4,559.4c13.1,20.6,26.4,40.7,35,63.6c6.7,17.9-3.9,41.7-26.4,47.3c-20.5,5.2-41.8-8.5-45.8-29.1
	c-1.5-7.9,0.1-15.1,2.9-22.3c8.5-21.1,20.7-40.1,33.2-58.9C942.4,560,942.7,559.9,943.4,559.4z"/>
<path d="M568.2,484c5.3,8.5,10.5,16.5,15.5,24.7c7.6,12.6,14.4,25.6,19.7,39.4c6.7,17.6-3.8,41.6-26.5,47.3
	c-20.5,5.1-41.7-8.6-45.7-29.3c-1.8-9.1,1-17.3,4.3-25.4C540.9,527.2,558.5,496.7,568.2,484z"/>
<path d="M418.4,409.4c13.1,20.6,26.4,40.7,35,63.6c6.7,17.8-3.9,41.7-26.4,47.3c-20.5,5.2-41.8-8.5-45.8-29.1
	c-1.5-7.7,0-14.9,2.8-21.9c8.5-21.2,20.7-40.3,33.3-59.2C417.4,409.9,417.7,409.9,418.4,409.4z"/>
<path d="M267.6,484.1c-7.5-12.4-15.1-24.1-21.8-36.3c-4.9-8.9-8.9-18.4-12.9-27.8c-7.6-18,3.9-42.2,26.7-47.6
	c23.3-5.5,46.3,12.6,45.7,36.5c-0.1,5.8-2.4,11.7-4.4,17.2C295.8,439.8,276.9,472.4,267.6,484.1z"/>
<path d="M492.8,333.9c-5.3-8.4-10.5-16.3-15.3-24.4c-7.6-12.6-14.5-25.6-19.7-39.4c-6.8-17.9,3.5-40.6,24.3-47
	c20-6.1,41.1,5.5,47,25.5c2.9,9.8,0.6,18.7-3.1,27.6C520.4,290,502.4,321.5,492.8,333.9z"/>
<path d="M792.5,408.7c12.9-7.8,24.7-15.4,37-22.2c8.8-4.8,18.1-8.8,27.4-12.7c17.7-7.4,40.1,3.6,46.6,23.5
	c7.8,23.9-10.1,49.3-35.3,48.9c-5.9-0.1-12-2.2-17.6-4.5C830.3,433.6,812,421.5,792.5,408.7z"/>
<path d="M418,634.1c-21.1,13.5-41.3,26.9-64.4,35.3c-15,5.5-33.1-1.4-41.9-14.9c-8.9-13.6-7.9-32.5,2.6-44.6
	c8.6-10,24.3-18.3,44.5-9.6c19.6,8.4,37.6,19.5,55.4,31.1C415.2,632.1,416.3,632.9,418,634.1z"/>
<path d="M342.8,784c21.3-13.6,41.5-27,64.6-35.4c15.5-5.7,34.3,1.9,42.7,16.1c9,15.3,6.4,35.1-6.5,46.6c-10.7,9.5-22.9,12.9-36.7,8
	C383.9,811,363.9,797.5,342.8,784z"/>
<path d="M868,784.1c-21.1,13.5-41.3,26.9-64.4,35.3c-15,5.4-33.1-1.4-41.9-14.9c-8.9-13.6-7.8-32.5,2.6-44.6
	c8.6-10,24.3-18.3,44.5-9.6c19.6,8.4,37.6,19.5,55.4,31.1C865.2,782.2,866.3,783,868,784.1z"/>
<path d="M726.8,558.6c11.7-8.2,22.7-16.2,34-23.7c6.1-4,12.8-7.2,19.4-10.3c19.3-9.2,42.1,3.4,48.4,22.7c7.8,23.9-10,49.2-35.2,49
	c-5.2,0-10.6-1.8-15.4-3.9C759.5,584.2,743.6,571.9,726.8,558.6z"/>
</svg>
