<?xml version="1.0" encoding="iso-8859-1"?>
<!-- Generator: Adobe Illustrator 18.1.1, SVG Export Plug-In . SVG Version: 6.00 Build 0)  -->
<svg version="1.1" id="Capa_1" xmlns="http://www.w3.org/2000/svg" xmlns:xlink="http://www.w3.org/1999/xlink" x="0px" y="0px"
	 viewBox="0 0 611.997 611.997" style="enable-background:new 0 0 611.997 611.997;" xml:space="preserve">
<g>
	<g>
		<path d="M435.599,512.143c-4.704,4.704-4.704,12.329,0,17.031c6.5,6.498,10.078,15.14,10.078,24.331
			c0,9.191-3.579,17.833-10.078,24.331c-6.498,6.5-15.14,10.078-24.331,10.078c-9.191,0-17.831-3.58-24.331-10.078
			c-13.416-13.416-13.416-35.245,0-48.661c0.557-0.557,8.468-8.786,8.468-8.786L307.7,432.682
			c5.712-9.031,9.034-19.718,9.034-31.171c0-32.255-26.24-58.496-58.496-58.496c-11.453,0-22.141,3.322-31.171,9.034l-22.135-22.135
			l3.653-3.653c9.425-9.423,14.614-21.953,14.614-35.28c0-13.327-5.191-25.857-14.614-35.28
			c-9.423-9.425-21.953-14.614-35.28-14.614c-13.327,0-25.857,5.191-35.28,14.614l-3.653,3.653l-24.331-24.331l10.331-10.331
			c15.77-15.771,15.77-41.432,0-57.202l-13.359-13.358c-7.639-7.639-17.796-11.847-28.601-11.847s-20.962,4.207-28.601,11.847
			l-10.331,10.331l-21.201-21.201L1.249,160.293l21.199,21.199l-10.326,10.326c-15.77,15.771-15.77,41.432,0,57.202l13.359,13.358
			c7.639,7.639,17.796,11.847,28.601,11.847s20.962-4.208,28.601-11.847l10.326-10.326l24.331,24.331l-3.647,3.647
			c-19.453,19.453-19.453,51.106,0,70.559c9.425,9.425,21.953,14.614,35.28,14.614c13.327,0,25.857-5.189,35.28-14.614l3.647-3.647
			l21.862,21.86c-6.323,9.342-10.018,20.599-10.018,32.704c0,32.255,26.24,58.496,58.496,58.496
			c12.105,0,23.362-3.696,32.704-10.018l71.42,71.42c-14.897,22.686-12.384,53.532,7.544,73.46
			c11.049,11.049,25.738,17.132,41.363,17.132s30.314-6.085,41.363-17.132c11.049-11.047,17.132-25.736,17.132-41.363
			s-6.085-30.315-17.132-41.363C447.928,507.437,440.301,507.439,435.599,512.143z M65.651,245.348
			c-3.09,3.09-7.198,4.793-11.57,4.793c-4.37,0-8.478-1.702-11.568-4.793L29.153,231.99c-6.379-6.379-6.379-16.759,0-23.138
			l37.69-37.688c3.09-3.09,7.198-4.791,11.57-4.791c4.37,0,8.478,1.702,11.568,4.791l13.359,13.358
			c6.379,6.379,6.379,16.759,0,23.138L65.651,245.348z M148.972,341.119c-6.894,0-13.375-2.684-18.249-7.558
			c-10.061-10.063-10.061-26.435,0-36.496l24.331-24.331c4.874-4.874,11.355-7.56,18.249-7.56c6.892,0,13.373,2.684,18.247,7.56
			c4.874,4.874,7.56,11.355,7.56,18.247s-2.684,13.373-7.56,18.247l-24.331,24.332C162.347,338.435,155.866,341.119,148.972,341.119
			z M258.237,435.92c-18.973,0-34.409-15.436-34.409-34.409c0-18.973,15.436-34.409,34.409-34.409
			c18.973,0,34.409,15.436,34.409,34.409C292.646,420.484,277.21,435.92,258.237,435.92z"/>
		<path d="M594.568,370.205c-4.702-4.704-12.329-4.702-17.031,0c-4.704,4.704-4.704,12.329,0,17.031
			c6.5,6.498,10.078,15.14,10.078,24.331s-3.579,17.833-10.078,24.331c-6.498,6.5-15.14,10.078-24.331,10.078
			c-9.191,0-17.831-3.58-24.331-10.078c-13.416-13.416-13.416-35.245,0-48.661c0.557-0.557,9.793-10.111,9.793-10.111l-86.66-86.66
			l10.323-10.323c15.771-15.771,15.771-41.43,0-57.202l-13.359-13.359c-7.639-7.639-17.796-11.847-28.601-11.847
			c-10.805,0-20.962,4.207-28.601,11.847l-10.326,10.326l-24.336-24.326l3.651-3.651c19.453-19.453,19.453-51.106,0-70.559
			c-9.423-9.425-21.953-14.614-35.28-14.614s-25.857,5.189-35.28,14.614l-3.653,3.653l-21.86-21.86
			c6.326-9.344,10.023-20.603,10.023-32.711c0-32.255-26.24-58.496-58.496-58.496c-12.109,0-23.367,3.699-32.711,10.023L161.525,0
			l-17.031,17.031l22.258,22.258c-5.708,9.029-9.029,19.713-9.029,31.164c0,32.255,26.24,58.496,58.496,58.496
			c11.451,0,22.134-3.32,31.164-9.029l22.135,22.135l-3.647,3.647c-19.453,19.453-19.453,51.106,0,70.559
			c9.425,9.425,21.953,14.614,35.28,14.614c13.327,0,25.857-5.189,35.28-14.614l3.647-3.647l24.336,24.326l-10.333,10.333
			c-15.771,15.771-15.771,41.43,0,57.202l13.359,13.359c7.639,7.639,17.796,11.847,28.601,11.847
			c10.805,0,20.962-4.207,28.601-11.847l10.335-10.335l70.406,70.406c-16.076,22.813-13.932,54.635,6.46,75.028
			c11.049,11.049,25.738,17.132,41.363,17.132c15.625,0,30.314-6.085,41.363-17.132c11.049-11.047,17.132-25.736,17.132-41.363
			C611.702,395.943,605.617,381.252,594.568,370.205z M181.807,70.453c0-18.973,15.436-34.409,34.409-34.409
			s34.409,15.436,34.409,34.409s-15.436,34.409-34.409,34.409S181.807,89.426,181.807,70.453z M301.151,206.787
			c-6.892,0-13.373-2.684-18.247-7.558c-10.061-10.063-10.061-26.435,0-36.496l24.331-24.331c4.874-4.874,11.355-7.558,18.249-7.558
			c6.894,0,13.373,2.684,18.247,7.558c10.063,10.063,10.063,26.435,0,36.496l-24.332,24.331
			C314.524,204.103,308.043,206.787,301.151,206.787z M407.609,300.798c-3.09,3.09-7.198,4.791-11.57,4.791
			c-4.37,0-8.478-1.702-11.568-4.791l-13.359-13.359c-6.379-6.379-6.379-16.759,0-23.138l37.69-37.69
			c3.09-3.09,7.198-4.791,11.57-4.791c4.37,0,8.478,1.702,11.568,4.791l13.359,13.359c6.379,6.379,6.379,16.759,0,23.138
			L407.609,300.798z"/>
	</g>
</g>
<g>
</g>
<g>
</g>
<g>
</g>
<g>
</g>
<g>
</g>
<g>
</g>
<g>
</g>
<g>
</g>
<g>
</g>
<g>
</g>
<g>
</g>
<g>
</g>
<g>
</g>
<g>
</g>
<g>
</g>
</svg>
